<svg xmlns="http://www.w3.org/2000/svg" viewBox="0 0 208.5 183.4"><defs><style>.cls-1,.cls-7{fill:#29abe2;}.cls-1,.cls-6{opacity:0.2;}.cls-2{fill:#aeb6ba;}.cls-3{fill:#858f93;}.cls-4{fill:#fff;}.cls-5,.cls-6,.cls-8{fill:#4f565d;}.cls-5{opacity:0.5;}.cls-9{fill:none;stroke:#fff;stroke-linecap:round;stroke-linejoin:round;stroke-width:2px;}</style></defs><title>11Ресурс 8</title><g id="Слой_2" data-name="Слой 2"><g id="Слой_1-2" data-name="Слой 1"><path class="cls-1" d="M202.74,108.38c17.68,21.84-9.53,47.41-25.33,64.9-19.54,21.64-47,1.84-79.55,1.84-38.46,0-73.82,14.35-92.55-14.4-9.93-15.24-3.68-26,.65-59.54C13.06,46.2,68.25-24,96.2,8.1c23.29,26.79,14.4,41.59,33.55,68.26C141.24,92.36,189.37,91.85,202.74,108.38Z"/><path class="cls-2" d="M28.06,63.5H156.18a5,5,0,0,1,5,5v87.57a.3.3,0,0,1-.3.3H23.22a.19.19,0,0,1-.19-.19V68.53A5,5,0,0,1,28.06,63.5Z"/><rect class="cls-3" x="19.63" y="156.4" width="145.83" height="8.73" rx="2.49" ry="2.49"/><rect class="cls-4" x="27.72" y="68.47" width="128.8" height="80.66" rx="1.92" ry="1.92"/><rect class="cls-1" x="27.72" y="74.4" width="128.8" height="15.77"/><circle class="cls-5" cx="32.27" cy="71.27" r="0.95"/><circle class="cls-5" cx="36.25" cy="71.27" r="0.95"/><circle class="cls-5" cx="40.23" cy="71.27" r="0.95"/><rect class="cls-6" x="39.95" y="98.94" width="46.48" height="15.63" rx="3.65" ry="3.65"/><rect class="cls-7" x="97.81" y="98.94" width="46.48" height="15.63" rx="5.03" ry="5.03"/><rect class="cls-6" x="39.95" y="119.31" width="46.48" height="15.63" rx="5.03" ry="5.03"/><rect class="cls-6" x="97.81" y="119.31" width="46.48" height="15.63" rx="5.03" ry="5.03"/><rect class="cls-8" x="87.58" y="65.4" width="6.25" height="1.45" rx="0.73" ry="0.73"/><rect class="cls-8" x="83.6" y="160.24" width="15.52" height="2.37" rx="0.73" ry="0.73"/><polyline class="cls-9" points="126.99 102.89 119.95 109.92 119.96 109.92 115.13 105.08"/><path class="cls-1" d="M122,18.57C118.14,10.93,109.4,7,117,3.18a15.46,15.46,0,0,1,20.75,6.91c3.82,7.63,6.75,17-.89,20.82S125.78,26.2,122,18.57Z"/></g></g></svg>