<svg xmlns="http://www.w3.org/2000/svg" viewBox="0 0 192.76 158.35"><defs><style>.cls-1,.cls-4{fill:#29abe2;}.cls-1{opacity:0.2;}.cls-2,.cls-5{fill:#fff;}.cls-3{fill:#4f565d;opacity:0.5;}.cls-5{font-size:12px;font-family:Roboto-Black, Roboto;}.cls-6{fill:none;stroke:#29abe2;stroke-linecap:round;stroke-linejoin:round;stroke-width:2px;}</style></defs><title>11Ресурс 9</title><g id="Слой_2" data-name="Слой 2"><g id="Слой_1-2" data-name="Слой 1"><path class="cls-1" d="M166,150.46c-21,26-48.46-21.55-82.13-11C36.65,154.32-18.38,130.22,6,53.62,29.63-20.86,54.6,6.78,94.69,9.67c38.07,2.75,52.9-21.21,83.92-2.4C209.32,25.89,183,129.45,166,150.46Z"/><rect class="cls-2" x="41.9" y="38.44" width="104.63" height="12.24" rx="6.12" ry="6.12"/><circle class="cls-3" cx="49.31" cy="44.56" r="2.03"/><circle class="cls-3" cx="56.63" cy="44.56" r="2.03"/><circle class="cls-3" cx="63.94" cy="44.56" r="2.03"/><circle class="cls-3" cx="71.25" cy="44.56" r="2.03"/><circle class="cls-3" cx="78.57" cy="44.56" r="2.03"/><circle class="cls-3" cx="85.88" cy="44.56" r="2.03"/><circle class="cls-3" cx="93.19" cy="44.56" r="2.03"/><rect class="cls-2" x="41.9" y="55.55" width="104.52" height="12.24" rx="6.12" ry="6.12"/><circle class="cls-3" cx="49.31" cy="61.67" r="2.03"/><circle class="cls-3" cx="56.63" cy="61.67" r="2.03"/><circle class="cls-3" cx="63.94" cy="61.67" r="2.03"/><circle class="cls-3" cx="71.25" cy="61.67" r="2.03"/><circle class="cls-3" cx="78.57" cy="61.67" r="2.03"/><rect class="cls-2" x="41.9" y="72.66" width="46.01" height="12.24" rx="6.12" ry="6.12"/><rect class="cls-2" x="100.72" y="72.66" width="46.27" height="12.24" rx="6.12" ry="6.12"/><circle class="cls-3" cx="49.31" cy="78.78" r="2.03"/><circle class="cls-3" cx="56.63" cy="78.78" r="2.03"/><circle class="cls-3" cx="63.94" cy="78.78" r="2.03"/><circle class="cls-3" cx="71.25" cy="78.78" r="2.03"/><circle class="cls-3" cx="78.57" cy="78.78" r="2.03"/><circle class="cls-3" cx="115.26" cy="78.78" r="2.03"/><circle class="cls-3" cx="122.57" cy="78.78" r="2.03"/><circle class="cls-3" cx="129.88" cy="78.78" r="2.03"/><circle class="cls-3" cx="137.2" cy="78.78" r="2.03"/><rect class="cls-4" x="57.79" y="107.24" width="72.85" height="15.78" rx="5.03" ry="5.03"/><text class="cls-5" transform="translate(85.88 119.47)">OK</text><line class="cls-6" x1="109.82" y1="114.34" x2="122.57" y2="114.34"/><line class="cls-6" x1="106.67" y1="103.48" x2="113.7" y2="96.45"/><line class="cls-6" x1="106.93" y1="126.45" x2="113.79" y2="133.32"/><line class="cls-6" x1="74.02" y1="113.43" x2="61.27" y2="113.43"/><line class="cls-6" x1="94.22" y1="100.65" x2="94.22" y2="87.9"/><line class="cls-6" x1="94.22" y1="141.7" x2="94.22" y2="128.95"/><line class="cls-6" x1="81.36" y1="126.29" x2="74.33" y2="133.32"/><line class="cls-6" x1="81.1" y1="103.32" x2="74.24" y2="96.45"/></g></g></svg>