<svg xmlns="http://www.w3.org/2000/svg" viewBox="0 0 136.95 188.99"><defs><style>.cls-1{fill:#29abe2;opacity:0.2;}.cls-2,.cls-3{fill:#4f565d;}.cls-2{opacity:0.6;}.cls-4{fill:#fff;}.cls-5{fill:none;stroke:#29abe2;stroke-linecap:round;stroke-linejoin:round;stroke-width:2px;}</style></defs><title>11Ресурс 10</title><g id="Слой_2" data-name="Слой 2"><g id="Слой_1-2" data-name="Слой 1"><path class="cls-1" d="M122.09,84.85c0,44.18,53.69,157-43,75.15C48.69,134.32-33,146.79,20.68,52.9,35,27.83,50.76,0,79.06,0,118.83,0,122.09,40.66,122.09,84.85Z"/><path class="cls-1" d="M57.59,177.18c-8.52-6.15-19.47-6.58-14.48-13.51s16-7.55,24.48-1.41,17.27,14.39,12.27,21.32S66.11,183.33,57.59,177.18Z"/><rect class="cls-2" x="32.35" y="110.84" width="89.86" height="17.99" rx="2.49" ry="2.49"/><rect class="cls-3" x="20.84" y="71.57" width="4.5" height="51.01" rx="2.25" ry="2.25"/><rect class="cls-3" x="23.09" y="117.33" width="9.27" height="5.25"/><circle class="cls-4" cx="100.22" cy="119.96" r="2.03"/><circle class="cls-4" cx="107.53" cy="119.96" r="2.03"/><path class="cls-5" d="M1,43.16a31.09,31.09,0,0,1,44,0"/><path class="cls-5" d="M5.4,49.51a24.86,24.86,0,0,1,35.16,0"/><path class="cls-5" d="M9.79,55.86a18.63,18.63,0,0,1,26.37,0"/><circle class="cls-4" cx="75.59" cy="72.57" r="28.33"/><path class="cls-5" d="M84.84,80.55a10.25,10.25,0,0,1-20.5,0"/><path class="cls-5" d="M61.59,68.13a5.13,5.13,0,1,1,10.25,0"/><path class="cls-5" d="M77.61,68.13a5.13,5.13,0,1,1,10.25,0"/></g></g></svg>