<svg xmlns="http://www.w3.org/2000/svg" viewBox="0 0 38.83 27.22"><defs><style>.cls-1{fill:#29abe2;}.cls-2{fill:#4f565d;}</style></defs><title>Ресурс 13</title><g id="Слой_2" data-name="Слой 2"><g id="Слой_1-2" data-name="Слой 1"><path class="cls-1" d="M9.84,26.61V0h4.35V26.61Z"/><path class="cls-1" d="M38.83,8a7.76,7.76,0,0,1-2.73,6.39q-2.73,2.22-7.77,2.22H25.57v10H21.22V0h7.66q5,0,7.47,2A7.3,7.3,0,0,1,38.83,8ZM25.57,13h2.31a8.24,8.24,0,0,0,4.91-1.16,4.23,4.23,0,0,0,1.57-3.64A4.13,4.13,0,0,0,33,4.77a7,7,0,0,0-4.37-1.13h-3Z"/><path class="cls-2" d="M17.93,15.22A5.94,5.94,0,0,0,16.17,11a6.08,6.08,0,0,0-1.52-1.1c-.16-.08-.33-.12-.49-.19V12a4.51,4.51,0,0,1,.6.48,3.95,3.95,0,0,1,0,5.6l-.86.87L8.29,13.31l.86-.87a4.34,4.34,0,0,1,.67-.53V9.68l-.41.16A6.18,6.18,0,0,0,7.73,11l-.9.91a.93.93,0,0,0-1.07.17L.27,17.63A.94.94,0,0,0,.27,19l8.05,8a.94.94,0,0,0,1.32,0l5.49-5.52a.93.93,0,0,0,.15-1.08l.91-.91A5.93,5.93,0,0,0,17.93,15.22Z"/></g></g></svg>