<svg xmlns="http://www.w3.org/2000/svg" viewBox="0 0 41 41"><defs><style>.cls-1{fill:#29abe2;fill-rule:evenodd;}.cls-2{fill:#4f565d;}</style></defs><title>инетРесурс 3</title><g id="Слой_2" data-name="Слой 2"><g id="Слой_1-2" data-name="Слой 1"><path class="cls-1" d="M10.28,21c0-10.77,4.14-19.5,9.25-19.5a19.5,19.5,0,0,0,0,39C14.42,40.5,10.28,31.77,10.28,21Z"/><path class="cls-2" d="M20.5,41A20.5,20.5,0,1,1,41,20.5,20.53,20.53,0,0,1,20.5,41Zm0-39A18.5,18.5,0,1,0,39,20.5,18.52,18.52,0,0,0,20.5,2Z"/><path class="cls-2" d="M20.5,41c-5.75,0-10.25-9-10.25-20.5S14.75,0,20.5,0,30.75,9,30.75,20.5,26.25,41,20.5,41Zm0-39C16,2,12.25,10.47,12.25,20.5S16,39,20.5,39s8.25-8.47,8.25-18.5S25,2,20.5,2Z"/><path class="cls-2" d="M20.5,12C13.29,12,6,10.07,6,6.38H8C8,7.85,12.87,10,20.5,10S33,7.85,33,6.38h2C35,10.07,27.71,12,20.5,12Z"/><path class="cls-2" d="M35,35.38H33c0-1.48-4.87-3.63-12.5-3.63S8,33.9,8,35.38H6c0-3.7,7.29-5.63,14.5-5.63S35,31.68,35,35.38Z"/><rect class="cls-2" x="1" y="19" width="39" height="2"/><rect class="cls-2" x="19.5" y="2" width="2" height="38"/></g></g></svg>