<svg xmlns="http://www.w3.org/2000/svg" viewBox="0 0 48.48 39.25"><defs><style>.cls-1{fill:#4f565d;}.cls-2{fill:#29abe2;}</style></defs><title>инетРесурс 6</title><g id="Слой_2" data-name="Слой 2"><g id="Слой_1-2" data-name="Слой 1"><path class="cls-1" d="M42.45,6H6a6,6,0,0,0-6,6V33.21a6,6,0,0,0,6,6H42.45a6,6,0,0,0,6-6V12A6,6,0,0,0,42.45,6Zm4,21H37V21.16h9.5ZM36,19.16a1,1,0,0,0-1,1V28a1,1,0,0,0,1,1h10.5v4.21a4,4,0,0,1-4,4H6a4,4,0,0,1-4-4V12A4,4,0,0,1,6,8H42.45a4,4,0,0,1,4,3.95H4.82v2H46.48v5.21Z"/><circle class="cls-2" cx="39.82" cy="24.08" r="1.29"/><path class="cls-2" d="M6.49,12,35.52.35a5,5,0,0,1,6.53,2.82L45.48,12Z"/></g></g></svg>