<svg xmlns="http://www.w3.org/2000/svg" viewBox="0 0 102.11 23.62"><defs><style>.cls-1{fill:#4d4d4d}.cls-2{fill:#29abe2}</style></defs><g id="Слой_2" data-name="Слой 2"><g id="Слой_1-2" data-name="Слой 1"><path class="cls-1" d="M11.42 23.62H8.05V16.4a3.26 3.26 0 0 0-.48-1.95 1.76 1.76 0 0 0-1.52-.65 2.3 2.3 0 0 0-2 .92 5.53 5.53 0 0 0-.63 3v5.68H0v-12h2.58L3 12.94h.19a3.58 3.58 0 0 1 1.56-1.31A5.38 5.38 0 0 1 7 11.18a4.4 4.4 0 0 1 3.28 1.14 4.46 4.46 0 0 1 1.11 3.26zM20.5 23.62A6.53 6.53 0 0 1 15.83 22a6 6 0 0 1-1.68-4.53 6.55 6.55 0 0 1 1.55-4.66 5.63 5.63 0 0 1 4.3-1.63 5.59 5.59 0 0 1 4.09 1.45 5.4 5.4 0 0 1 1.46 4v1.59h-8a2.81 2.81 0 0 0 3.09 3 9.55 9.55 0 0 0 2.13-.22 10.52 10.52 0 0 0 2.08-.72v2.53a7.94 7.94 0 0 1-1.89.64 12.25 12.25 0 0 1-2.46.17zM20 13.51a2.19 2.19 0 0 0-1.69.66 3 3 0 0 0-.66 1.83h4.73a2.66 2.66 0 0 0-.65-1.87 2.24 2.24 0 0 0-1.73-.62zM33.51 21a7.44 7.44 0 0 0 2.12-.37v2.43a7.85 7.85 0 0 1-3.1.55 3.84 3.84 0 0 1-3-1 4.24 4.24 0 0 1-.92-3v-5.74H27l5-5.49v3h3.5v2.46H32v5.78a1.26 1.26 0 0 0 .4 1 1.65 1.65 0 0 0 1.11.38z"/><path class="cls-2" d="M46.77 19.84a3.26 3.26 0 0 1-1.32 2.81 6.64 6.64 0 0 1-4 1 12.55 12.55 0 0 1-2.3-.18 8.78 8.78 0 0 1-1.78-.52v-2.7a12.81 12.81 0 0 0 2.12.72 8.91 8.91 0 0 0 2.07.29c1.23 0 1.84-.35 1.84-1a.85.85 0 0 0-.24-.63 3.66 3.66 0 0 0-.85-.55c-.39-.2-.93-.44-1.59-.71a10.4 10.4 0 0 1-2.1-1.08 3 3 0 0 1-1-1.13 3.66 3.66 0 0 1-.31-1.57 2.83 2.83 0 0 1 1.28-2.47 6.4 6.4 0 0 1 3.63-.88 10.56 10.56 0 0 1 4.35 1l-1 2.36a17.07 17.07 0 0 0-1.74-.63 5.46 5.46 0 0 0-1.65-.25c-1 0-1.49.26-1.49.78a.9.9 0 0 0 .48.76 12.28 12.28 0 0 0 2.11 1 10 10 0 0 1 2.12 1.06 3.15 3.15 0 0 1 1 1.14 3.45 3.45 0 0 1 .37 1.38zM55 23.62A6.52 6.52 0 0 1 50.34 22a5.94 5.94 0 0 1-1.69-4.53 6.51 6.51 0 0 1 1.56-4.66 5.63 5.63 0 0 1 4.3-1.65 5.55 5.55 0 0 1 4.08 1.45 5.37 5.37 0 0 1 1.47 4v1.59h-8a3.08 3.08 0 0 0 .86 2.18 3 3 0 0 0 2.23.78 9.64 9.64 0 0 0 2.13-.16 11 11 0 0 0 2.08-.72v2.53a7.87 7.87 0 0 1-1.9.64 12.21 12.21 0 0 1-2.46.17zm-.48-10.11a2.17 2.17 0 0 0-1.68.66 3 3 0 0 0-.7 1.87h4.74a2.71 2.71 0 0 0-.65-1.87 2.25 2.25 0 0 0-1.7-.66zM66.18 23.4H62.8V6.71h3.38zM75.32 23.62A6.53 6.53 0 0 1 70.65 22 6 6 0 0 1 69 17.49a6.55 6.55 0 0 1 1.55-4.66 6.46 6.46 0 0 1 8.39-.2 5.4 5.4 0 0 1 1.46 4v1.59h-8a2.81 2.81 0 0 0 3.09 3 9.55 9.55 0 0 0 2.1-.22 10.74 10.74 0 0 0 2.08-.72v2.53a7.94 7.94 0 0 1-1.89.64 12.25 12.25 0 0 1-2.46.17zm-.48-10.11a2.18 2.18 0 0 0-1.68.66 3.05 3.05 0 0 0-.7 1.87h4.74a2.66 2.66 0 0 0-.65-1.87 2.25 2.25 0 0 0-1.71-.66zM88.14 23.62q-5.77 0-5.78-6.15a6.42 6.42 0 0 1 1.57-4.67 6 6 0 0 1 4.51-1.62 8.88 8.88 0 0 1 3.85.82l-1 2.53a15.44 15.44 0 0 0-1.48-.53 5 5 0 0 0-1.37-.2q-2.64 0-2.64 3.63c0 2.34.88 3.52 2.64 3.52a6.42 6.42 0 0 0 1.8-.25 6.78 6.78 0 0 0 1.66-.79v2.8a5.33 5.33 0 0 1-1.65.69 9.49 9.49 0 0 1-2.11.22zM100 21a7.5 7.5 0 0 0 2.12-.37v2.43a7.85 7.85 0 0 1-3.1.55 3.84 3.84 0 0 1-3-1 4.2 4.2 0 0 1-.92-3v-5.74h-1.58l5-5.76v3.3H102v2.46h-3.49v5.78a1.26 1.26 0 0 0 .41 1A1.63 1.63 0 0 0 100 21zM29.05 6.83a12.33 12.33 0 0 0-18.41 0L8.88 4.91a14.7 14.7 0 0 1 21.94 0z"/><path class="cls-2" d="M25.72 10.41a7.89 7.89 0 0 0-11.75 0L12.21 8.5a10.24 10.24 0 0 1 15.28 0z"/></g></g></svg>