<?xml version="1.0" encoding="UTF-8" standalone="no"?>
<svg
   xmlns:dc="http://purl.org/dc/elements/1.1/"
   xmlns:cc="http://creativecommons.org/ns#"
   xmlns:rdf="http://www.w3.org/1999/02/22-rdf-syntax-ns#"
   xmlns:svg="http://www.w3.org/2000/svg"
   xmlns="http://www.w3.org/2000/svg"
   id="svg14"
   version="1.1"
   viewBox="0 0 102.11 23.62">
  <metadata
     id="metadata18">
    <rdf:RDF>
      <cc:Work
         rdf:about="">
        <dc:format>image/svg+xml</dc:format>
        <dc:type
           rdf:resource="http://purl.org/dc/dcmitype/StillImage" />
        <dc:title></dc:title>
      </cc:Work>
    </rdf:RDF>
  </metadata>
  <defs
     id="defs4">
    <style
       id="style2">.cls-1{fill:#4d4d4d}.cls-2{fill:#29abe2}</style>
  </defs>
  <path
     style="fill:#ffffff"
     id="path6"
     d="M 11.42,23.62 H 8.05 V 16.4 A 3.26,3.26 0 0 0 7.57,14.45 1.76,1.76 0 0 0 6.05,13.8 a 2.3,2.3 0 0 0 -2,0.92 5.53,5.53 0 0 0 -0.63,3 V 23.4 H 0 v -12 H 2.58 L 3,12.94 H 3.19 A 3.58,3.58 0 0 1 4.75,11.63 5.38,5.38 0 0 1 7,11.18 a 4.4,4.4 0 0 1 3.28,1.14 4.46,4.46 0 0 1 1.11,3.26 z m 9.08,0 A 6.53,6.53 0 0 1 15.83,22 6,6 0 0 1 14.15,17.47 6.55,6.55 0 0 1 15.7,12.81 5.63,5.63 0 0 1 20,11.18 a 5.59,5.59 0 0 1 4.09,1.45 5.4,5.4 0 0 1 1.46,4 v 1.59 h -8 a 2.81,2.81 0 0 0 3.09,3 9.55,9.55 0 0 0 2.13,-0.22 10.52,10.52 0 0 0 2.08,-0.72 v 2.53 a 7.94,7.94 0 0 1 -1.89,0.64 12.25,12.25 0 0 1 -2.46,0.17 z M 20,13.51 A 2.19,2.19 0 0 0 18.31,14.17 3,3 0 0 0 17.65,16 h 4.73 A 2.66,2.66 0 0 0 21.73,14.13 2.24,2.24 0 0 0 20,13.51 Z M 33.51,21 a 7.44,7.44 0 0 0 2.12,-0.37 v 2.43 a 7.85,7.85 0 0 1 -3.1,0.55 3.84,3.84 0 0 1 -3,-1 4.24,4.24 0 0 1 -0.92,-3 V 13.87 H 27 l 5,-5.49 v 3 h 3.5 v 2.46 H 32 v 5.78 a 1.26,1.26 0 0 0 0.4,1 1.65,1.65 0 0 0 1.11,0.38 z"
     class="cls-1" />
  <path
     style="fill:#29abe2"
     id="path8"
     d="m 46.77,19.84 a 3.26,3.26 0 0 1 -1.32,2.81 6.64,6.64 0 0 1 -4,1 12.55,12.55 0 0 1 -2.3,-0.18 8.78,8.78 0 0 1 -1.78,-0.52 v -2.7 a 12.81,12.81 0 0 0 2.12,0.72 8.91,8.91 0 0 0 2.07,0.29 c 1.23,0 1.84,-0.35 1.84,-1 a 0.85,0.85 0 0 0 -0.24,-0.63 3.66,3.66 0 0 0 -0.85,-0.55 c -0.39,-0.2 -0.93,-0.44 -1.59,-0.71 a 10.4,10.4 0 0 1 -2.1,-1.08 3,3 0 0 1 -1,-1.13 3.66,3.66 0 0 1 -0.31,-1.57 2.83,2.83 0 0 1 1.28,-2.47 6.4,6.4 0 0 1 3.63,-0.88 10.56,10.56 0 0 1 4.35,1 l -1,2.36 a 17.07,17.07 0 0 0 -1.74,-0.63 5.46,5.46 0 0 0 -1.65,-0.25 c -1,0 -1.49,0.26 -1.49,0.78 a 0.9,0.9 0 0 0 0.48,0.76 12.28,12.28 0 0 0 2.11,1 10,10 0 0 1 2.12,1.06 3.15,3.15 0 0 1 1,1.14 3.45,3.45 0 0 1 0.37,1.38 z M 55,23.62 A 6.52,6.52 0 0 1 50.34,22 a 5.94,5.94 0 0 1 -1.69,-4.53 6.51,6.51 0 0 1 1.56,-4.66 5.63,5.63 0 0 1 4.3,-1.65 5.55,5.55 0 0 1 4.08,1.45 5.37,5.37 0 0 1 1.47,4 v 1.59 h -8 a 3.08,3.08 0 0 0 0.86,2.18 3,3 0 0 0 2.23,0.78 9.64,9.64 0 0 0 2.13,-0.16 11,11 0 0 0 2.08,-0.72 v 2.53 A 7.87,7.87 0 0 1 57.46,23.45 12.21,12.21 0 0 1 55,23.62 Z M 54.52,13.51 a 2.17,2.17 0 0 0 -1.68,0.66 3,3 0 0 0 -0.7,1.87 h 4.74 a 2.71,2.71 0 0 0 -0.65,-1.87 2.25,2.25 0 0 0 -1.7,-0.66 z M 66.18,23.4 H 62.8 V 6.71 h 3.38 z m 9.14,0.22 A 6.53,6.53 0 0 1 70.65,22 6,6 0 0 1 69,17.49 a 6.55,6.55 0 0 1 1.55,-4.66 6.46,6.46 0 0 1 8.39,-0.2 5.4,5.4 0 0 1 1.46,4 v 1.59 h -8 a 2.81,2.81 0 0 0 3.09,3 9.55,9.55 0 0 0 2.1,-0.22 10.74,10.74 0 0 0 2.08,-0.72 v 2.53 a 7.94,7.94 0 0 1 -1.89,0.64 12.25,12.25 0 0 1 -2.46,0.17 z M 74.84,13.51 a 2.18,2.18 0 0 0 -1.68,0.66 3.05,3.05 0 0 0 -0.7,1.87 h 4.74 a 2.66,2.66 0 0 0 -0.65,-1.87 2.25,2.25 0 0 0 -1.71,-0.66 z m 13.3,10.11 q -5.77,0 -5.78,-6.15 a 6.42,6.42 0 0 1 1.57,-4.67 6,6 0 0 1 4.51,-1.62 8.88,8.88 0 0 1 3.85,0.82 l -1,2.53 A 15.44,15.44 0 0 0 89.81,14 5,5 0 0 0 88.44,13.8 q -2.64,0 -2.64,3.63 c 0,2.34 0.88,3.52 2.64,3.52 a 6.42,6.42 0 0 0 1.8,-0.25 6.78,6.78 0 0 0 1.66,-0.79 v 2.8 a 5.33,5.33 0 0 1 -1.65,0.69 9.49,9.49 0 0 1 -2.11,0.22 z M 100,21 a 7.5,7.5 0 0 0 2.12,-0.37 v 2.43 a 7.85,7.85 0 0 1 -3.1,0.55 3.84,3.84 0 0 1 -3,-1 4.2,4.2 0 0 1 -0.92,-3 v -5.74 h -1.58 l 5,-5.76 v 3.3 H 102 v 2.46 h -3.49 v 5.78 a 1.26,1.26 0 0 0 0.41,1 A 1.63,1.63 0 0 0 100,21 Z M 29.05,6.83 a 12.33,12.33 0 0 0 -18.41,0 L 8.88,4.91 a 14.7,14.7 0 0 1 21.94,0 z"
     class="cls-2" />
  <path
     style="fill:#29abe2"
     id="path10"
     d="m 25.72,10.41 a 7.89,7.89 0 0 0 -11.75,0 L 12.21,8.5 a 10.24,10.24 0 0 1 15.28,0 z"
     class="cls-2" />
</svg>
