<svg xmlns="http://www.w3.org/2000/svg" viewBox="0 0 41 41"><defs><style>.cls-1{fill:#29abe2;}.cls-2{fill:#4f565d;}</style></defs><title>инетРесурс 5</title><g id="Слой_2" data-name="Слой 2"><g id="Слой_1-2" data-name="Слой 1"><path class="cls-1" d="M33,27.11l5,2.09C44.59,12.53,32,1,19.72,1.51V5.64c.28,0,.56,0,.85,0,8.32,0,14.1,6.63,14.28,14.89A14.88,14.88,0,0,1,33,27.11Z"/><polygon class="cls-2" points="21.13 22.94 19.71 21.53 32.5 9.74 32.74 9.98 32.97 10.21 21.13 22.94"/><path class="cls-2" d="M41,19.5A20.72,20.72,0,0,0,39,11.76a20.83,20.83,0,0,0-3.36-5Q35,6,34.25,5.34a20.69,20.69,0,0,0-5.33-3.51,18.9,18.9,0,0,0-1.86-.73,20.06,20.06,0,0,0-5.56-1c-.33,0-.66,0-1,0s-.67,0-1,.05a20.58,20.58,0,0,0-5.74,1.11c-.64.22-1.25.47-1.86.75A20.57,20.57,0,0,0,6.75,5.34Q6,6,5.34,6.75a20.79,20.79,0,0,0-3.23,4.74c-.29.6-.55,1.21-.79,1.84A20.36,20.36,0,0,0,.05,19.5c0,.33,0,.66,0,1s0,.67.05,1A20.72,20.72,0,0,0,2,29.24a20.83,20.83,0,0,0,3.36,5Q6,35,6.75,35.66a20.69,20.69,0,0,0,5.33,3.51,18.9,18.9,0,0,0,1.86.73A20.06,20.06,0,0,0,19.5,41c.33,0,.66,0,1,0s.67,0,1,0a20.58,20.58,0,0,0,5.74-1.11c.64-.22,1.25-.47,1.86-.75a20.57,20.57,0,0,0,5.15-3.43Q35,35,35.66,34.25a20.79,20.79,0,0,0,3.23-4.74c.29-.6.55-1.21.79-1.84A20.36,20.36,0,0,0,41,21.5c0-.33,0-.66,0-1S41,19.83,41,19.5Zm-3.11,7.38-5.92-2.33a16.54,16.54,0,0,1-.79,1.83l5.92,2.34a18.42,18.42,0,0,1-2.8,4.11,19,19,0,0,1-1.42,1.42,18.32,18.32,0,0,1-4.48,3,17.62,17.62,0,0,1-1.86.75,18,18,0,0,1-5,1c-.33,0-.66,0-1,0s-.67,0-1,0A18.36,18.36,0,0,1,14.67,38a19.93,19.93,0,0,1-1.86-.73,18.76,18.76,0,0,1-4.64-3.06L10,32.36A15.64,15.64,0,0,1,8.59,31L6.75,32.83a18.62,18.62,0,0,1-2.92-4.35L6.71,27.2a17.59,17.59,0,0,1-.77-1.85L3.07,26.63a18.19,18.19,0,0,1-1-5.13H5.38c0-.33,0-.66,0-1s0-.67,0-1H2.05a18.15,18.15,0,0,1,1.11-5.38l3.18,1.45a15.68,15.68,0,0,1,.79-1.84L4,12.28a18.42,18.42,0,0,1,2.8-4.11l2.54,2.28A17.17,17.17,0,0,1,10.71,9L8.17,6.75a18.32,18.32,0,0,1,4.48-3L14,6.91a16.8,16.8,0,0,1,1.86-.75L14.51,3a18,18,0,0,1,5-1V5.6c.33,0,.66,0,1,0s.67,0,1,0V2.05A18.36,18.36,0,0,1,26.33,3L24.77,6.89a19,19,0,0,1,1.86.74l1.56-3.94a18.76,18.76,0,0,1,4.64,3.06L31.7,7.89A15.64,15.64,0,0,1,33.11,9.3l1.14-1.13a18.62,18.62,0,0,1,2.92,4.35l-5.62,2.14a17.59,17.59,0,0,1,.77,1.85l5.61-2.14a18.19,18.19,0,0,1,1,5.13h-6.2c0,.33,0,.66,0,1s0,.67,0,1H39A18.15,18.15,0,0,1,37.84,26.88Z"/></g></g></svg>