<svg width="20" height="20" xmlns="http://www.w3.org/2000/svg"><g fill="#29ABE2" fill-rule="nonzero"><path d="M10 0C4.477 0 0 4.477 0 10s4.477 10 10 10 10-4.477 10-10S15.523 0 10 0zm0 18.438a8.437 8.437 0 1 1 0-16.875 8.437 8.437 0 1 1 0 16.875z"/><path d="M12.778 14.999c.223 0 2.222-1.478 2.222-1.667 0-.188-2.237-1.597-2.43-1.597-.194 0-.843.778-1.018.865-.176.087-1.27.056-2.489-1.163-1.22-1.219-1.636-2.622-1.636-2.842 0-.22 1.017-.9 1.045-1.06C8.5 7.374 7.132 5 6.91 5 6.688 5 5 7.05 5 7.222c0 .17.154 2.369 2.938 5.152 2.784 2.783 4.618 2.623 4.84 2.625z"/></g></svg>