<svg xmlns="http://www.w3.org/2000/svg" viewBox="0 0 37.51 41"><g data-name="Слой 2"><g data-name="Слой 1"><path d="M19.8 14.46c.87-.5-3.58-6.33-3-6.79-4 3.18-10.08 9.13-4.08 18.07 3.46 5.14 9.15 9.94 18.38 4.39-2 1.22-1.7-4.95-4.92-5.17-.63 0-6.5 3.71-9.5-1.5-.99-1.72-.88-6.67 3.12-9z" fill="#29abe2" fill-rule="evenodd"/><path d="M20.5 39A18.52 18.52 0 0 1 2 20.5 18.79 18.79 0 0 1 7.59 7.18 17.72 17.72 0 0 1 20.48 2c9 .16 13.92 6 14.85 11.69a10.71 10.71 0 0 1-6.92 12.17l-1.81-2.5-.75.34c-4.38 2-6.1 2.44-8.16-.85-1.86-3-.76-4.77 2.42-7.66l.56-.51L16.4 6l-1 .69C9.94 10.61 7 18.36 12.74 26.8c2.51 3.68 5.68 5.95 9.14 6.56a11 11 0 0 0 1.89.17A12.37 12.37 0 0 0 31 31.1l.82-.59-2.16-3a12.62 12.62 0 0 0 7.69-14.17C36.24 6.84 30.63.19 20.52 0A19.93 19.93 0 0 0 6.18 5.76 20.78 20.78 0 0 0 0 20.5a20.5 20.5 0 0 0 37.43 11.56l-1.65-1.13A18.48 18.48 0 0 1 20.5 39zm1.73-7.61c-2.92-.51-5.64-2.49-7.84-5.72-5-7.25-2.57-13.3 1.28-16.64l2.54 5.19c-2.71 2.56-4.87 5.46-2.22 9.69 3 4.75 6.37 3.58 10 1.95L29 30a9.66 9.66 0 0 1-6.77 1.39z" fill="#4f565d"/></g></g></svg>