<svg xmlns="http://www.w3.org/2000/svg" viewBox="0 0 45.76 41"><defs><style>.cls-1{fill:#29abe2;}.cls-2{fill:#4f565d;}</style></defs><title>твРесурс 2</title><g id="Слой_2" data-name="Слой 2"><g id="Слой_1-2" data-name="Слой 1"><path class="cls-1" d="M5.14,1H40.41a3.52,3.52,0,0,1,3.52,3.52v.81a0,0,0,0,1,0,0H1.11a0,0,0,0,1,0,0V5A4,4,0,0,1,5.14,1Z"/><path class="cls-1" d="M5.58,29.67H40.84a3.52,3.52,0,0,1,3.52,3.52V34a0,0,0,0,1,0,0H1.55a0,0,0,0,1,0,0v-.3a4,4,0,0,1,4-4Z" transform="translate(45.92 63.67) rotate(-180)"/><path class="cls-2" d="M40.3,0H5.46A5.47,5.47,0,0,0,0,5.46V29.54A5.47,5.47,0,0,0,5.46,35H21.88v4h-10v2h22V39h-10V35H40.3a5.47,5.47,0,0,0,5.46-5.46V5.46A5.47,5.47,0,0,0,40.3,0ZM2,28.58V6.17H43.76V28.58ZM5.46,2H40.3a3.48,3.48,0,0,1,3.21,2.17H2.26A3.45,3.45,0,0,1,5.46,2ZM40.3,33H5.46a3.45,3.45,0,0,1-3.28-2.42h41.4A3.44,3.44,0,0,1,40.3,33Z"/><path class="cls-2" d="M22,13.9H18.68v8.88H16.49V13.9H13.26V12.12H22Z"/><path class="cls-2" d="M27.26,20.14l2.42-8h2.44L28.41,22.78H26.12l-3.7-10.66h2.44Z"/></g></g></svg>