<?xml version="1.0" encoding="UTF-8" standalone="no"?>
<svg
   xmlns:dc="http://purl.org/dc/elements/1.1/"
   xmlns:cc="http://creativecommons.org/ns#"
   xmlns:rdf="http://www.w3.org/1999/02/22-rdf-syntax-ns#"
   xmlns:svg="http://www.w3.org/2000/svg"
   xmlns="http://www.w3.org/2000/svg"
   viewBox="0 0 50.623047 50.625"
   height="50.625"
   width="50.623047"
   xml:space="preserve"
   id="svg2"
   version="1.1"><metadata
     id="metadata8"><rdf:RDF><cc:Work
         rdf:about=""><dc:format>image/svg+xml</dc:format><dc:type
           rdf:resource="http://purl.org/dc/dcmitype/StillImage" /><dc:title></dc:title></cc:Work></rdf:RDF></metadata><defs
     id="defs6"><clipPath
       id="clipPath22"
       clipPathUnits="userSpaceOnUse"><path
         style="clip-rule:evenodd"
         id="path20"
         d="m 665.602,1920 c 537.598,0 51.199,0 588.798,0 537.6,0 665.6,-128 665.6,-665.6 0,-537.599 0,-51.2 0,-588.798 C 1920,128 1792,0 1254.4,0 716.801,0 1203.2,0 665.602,0 128,0 0,128 0,665.602 0,1203.2 0,954.195 0,1254.4 0,1792 128,1920 665.602,1920 Z" /></clipPath></defs><g
     transform="matrix(1.3333333,0,0,-1.3333333,-52.158749,231.25999)"
     id="g10"><path
       id="path36"
       d="M 58.101973,173.445 A 18.98402,18.98402 0 0 1 39.119063,154.46062 18.98402,18.98402 0 0 1 58.101973,135.47625 18.98402,18.98402 0 0 1 77.086349,154.46062 18.98402,18.98402 0 0 1 58.101973,173.445 Z M 47.594649,161.20769 h 2.485839 c 0.635253,0 0.874994,-0.27849 1.113281,-0.96679 1.215542,-3.54093 3.264826,-6.63574 4.107422,-6.63574 0.315939,0 0.459961,0.14532 0.459961,0.94775 v 3.66064 c -0.0923,1.68515 -0.987304,1.82367 -0.987304,2.42286 0,0.27801 0.237869,0.57128 0.632812,0.57128 h 3.905273 c 0.526744,0 0.710449,-0.28204 0.710449,-0.91406 v -4.9248 c 0,-0.52657 0.228714,-0.71045 0.386719,-0.71045 0.316012,0 0.5794,0.18392 1.158691,0.76318 1.790617,2.0012 3.0542,5.08301 3.0542,5.08301 0.158011,0.36856 0.449039,0.70312 1.081055,0.70312 h 2.485839 c 0.751678,0 0.909298,-0.3875 0.751466,-0.91406 -0.316003,-1.44833 -3.344239,-5.71435 -3.344239,-5.71435 -0.26328,-0.42116 -0.368736,-0.63197 0,-1.10596 0.26328,-0.36875 1.133102,-1.10527 1.712402,-1.79004 1.067511,-1.20105 1.872141,-2.21515 2.096193,-2.91357 0.204868,-0.7007 -0.149729,-1.05469 -0.859863,-1.05469 h -2.485842 c -0.947858,0 -1.225314,0.75503 -2.910644,2.44043 -1.474605,1.42187 -2.107024,1.60693 -2.475586,1.60693 -0.500292,0 -0.650391,-0.14239 -0.650391,-0.85254 v -2.22802 c 0,-0.61159 -0.195476,-0.9668 -1.77539,-0.9668 -2.633189,0 -5.526725,1.59787 -7.580567,4.54687 -3.080788,4.31853 -3.922851,7.5842 -3.922851,8.24268 0,0.36856 0.140937,0.70312 0.851075,0.70312 z"
       style="fill:#f4fafd;stroke-width:0.75;fill-opacity:1" /></g></svg>